<svg xmlns="http://www.w3.org/2000/svg" viewBox="0 0 100 100" preserveAspectRatio="xMidYMid" width="200" height="200" xmlns:xlink="http://www.w3.org/1999/xlink" style="shape-rendering:auto;display:block;background-position-x:0%;background-position-y:0%;background-size:auto;background-origin:padding-box;background-clip:border-box;fill:rgb(0, 0, 0);stroke:none;transform:none;opacity:1;background:scroll rgb(255, 255, 255) none  repeat;width:200px;height:200px;;animation:none"><g style="fill:rgb(0, 0, 0);stroke:none;transform:none;opacity:1;;animation:none"><g transform="matrix(1,0,0,1,80,50)" style="fill:rgb(0, 0, 0);stroke:none;transform:matrix(1, 0, 0, 1, 80, 50);opacity:1;;animation:none"><g transform="matrix(1,0,0,1,0,0)" style="fill:rgb(0, 0, 0);stroke:none;transform:matrix(1, 0, 0, 1, 0, 0);opacity:1;;animation:none"><circle fill-opacity="0.125" fill="#ff727d" r="6" cy="0" cx="0" transform="matrix(1.0625,0,0,1.0625,0,0)" style="fill:rgb(255, 114, 125);stroke:none;transform:matrix(1.0625, 0, 0, 1.0625, 0, 0);opacity:1;;animation:none"></circle></g></g>
<g transform="matrix(1,0,0,1,71.21320343017578,71.21320343017578)" style="fill:rgb(0, 0, 0);stroke:none;transform:matrix(1, 0, 0, 1, 71.2132, 71.2132);opacity:1;;animation:none"><g transform="matrix(0.7071067690849304,0.7071067690849304,-0.7071067690849304,0.7071067690849304,0,0)" style="fill:rgb(0, 0, 0);stroke:none;transform:matrix(0.707107, 0.707107, -0.707107, 0.707107, 0, 0);opacity:1;;animation:none"><circle fill-opacity="0.25" fill="#ff727d" r="6" cy="0" cx="0" transform="matrix(1.125,0,0,1.125,0,0)" style="fill:rgb(255, 114, 125);stroke:none;transform:matrix(1.125, 0, 0, 1.125, 0, 0);opacity:1;;animation:none"></circle></g></g>
<g transform="matrix(1,0,0,1,50,80)" style="fill:rgb(0, 0, 0);stroke:none;transform:matrix(1, 0, 0, 1, 50, 80);opacity:1;;animation:none"><g transform="matrix(6.123234262925839e-17,1,-1,6.123234262925839e-17,0,0)" style="fill:rgb(0, 0, 0);stroke:none;transform:matrix(0, 1, -1, 0, 0, 0);opacity:1;;animation:none"><circle fill-opacity="0.375" fill="#ff727d" r="6" cy="0" cx="0" transform="matrix(1.1875,0,0,1.1875,0,0)" style="fill:rgb(255, 114, 125);stroke:none;transform:matrix(1.1875, 0, 0, 1.1875, 0, 0);opacity:1;;animation:none"></circle></g></g>
<g transform="matrix(1,0,0,1,28.78679656982422,71.21320343017578)" style="fill:rgb(0, 0, 0);stroke:none;transform:matrix(1, 0, 0, 1, 28.7868, 71.2132);opacity:1;;animation:none"><g transform="matrix(-0.7071067690849304,0.7071067690849304,-0.7071067690849304,-0.7071067690849304,0,0)" style="fill:rgb(0, 0, 0);stroke:none;transform:matrix(-0.707107, 0.707107, -0.707107, -0.707107, 0, 0);opacity:1;;animation:none"><circle fill-opacity="0.5" fill="#ff727d" r="6" cy="0" cx="0" transform="matrix(1.25,0,0,1.25,0,0)" style="fill:rgb(255, 114, 125);stroke:none;transform:matrix(1.25, 0, 0, 1.25, 0, 0);opacity:1;;animation:none"></circle></g></g>
<g transform="matrix(1,0,0,1,20,50)" style="fill:rgb(0, 0, 0);stroke:none;transform:matrix(1, 0, 0, 1, 20, 50);opacity:1;;animation:none"><g transform="matrix(-1,1.2246468525851679e-16,-1.2246468525851679e-16,-1,0,0)" style="fill:rgb(0, 0, 0);stroke:none;transform:matrix(-1, 0, 0, -1, 0, 0);opacity:1;;animation:none"><circle fill-opacity="0.625" fill="#ff727d" r="6" cy="0" cx="0" transform="matrix(1.3125,0,0,1.3125,0,0)" style="fill:rgb(255, 114, 125);stroke:none;transform:matrix(1.3125, 0, 0, 1.3125, 0, 0);opacity:1;;animation:none"></circle></g></g>
<g transform="matrix(1,0,0,1,28.78679656982422,28.78679656982422)" style="fill:rgb(0, 0, 0);stroke:none;transform:matrix(1, 0, 0, 1, 28.7868, 28.7868);opacity:1;;animation:none"><g transform="matrix(-0.7071067690849304,-0.7071067690849304,0.7071067690849304,-0.7071067690849304,0,0)" style="fill:rgb(0, 0, 0);stroke:none;transform:matrix(-0.707107, -0.707107, 0.707107, -0.707107, 0, 0);opacity:1;;animation:none"><circle fill-opacity="0.75" fill="#ff727d" r="6" cy="0" cx="0" transform="matrix(1.375,0,0,1.375,0,0)" style="fill:rgb(255, 114, 125);stroke:none;transform:matrix(1.375, 0, 0, 1.375, 0, 0);opacity:1;;animation:none"></circle></g></g>
<g transform="matrix(1,0,0,1,50,20)" style="fill:rgb(0, 0, 0);stroke:none;transform:matrix(1, 0, 0, 1, 50, 20);opacity:1;;animation:none"><g transform="matrix(-1.8369701465288538e-16,-1,1,-1.8369701465288538e-16,0,0)" style="fill:rgb(0, 0, 0);stroke:none;transform:matrix(0, -1, 1, 0, 0, 0);opacity:1;;animation:none"><circle fill-opacity="0.875" fill="#ff727d" r="6" cy="0" cx="0" transform="matrix(1.4375,0,0,1.4375,0,0)" style="fill:rgb(255, 114, 125);stroke:none;transform:matrix(1.4375, 0, 0, 1.4375, 0, 0);opacity:1;;animation:none"></circle></g></g>
<g transform="matrix(1,0,0,1,71.21320343017578,28.78679656982422)" style="fill:rgb(0, 0, 0);stroke:none;transform:matrix(1, 0, 0, 1, 71.2132, 28.7868);opacity:1;;animation:none"><g transform="matrix(0.7071067690849304,-0.7071067690849304,0.7071067690849304,0.7071067690849304,0,0)" style="fill:rgb(0, 0, 0);stroke:none;transform:matrix(0.707107, -0.707107, 0.707107, 0.707107, 0, 0);opacity:1;;animation:none"><circle fill-opacity="1" fill="#ff727d" r="6" cy="0" cx="0" transform="matrix(1.5,0,0,1.5,0,0)" style="fill:rgb(255, 114, 125);stroke:none;transform:matrix(1.5, 0, 0, 1.5, 0, 0);opacity:1;;animation:none"></circle></g></g>
<g style="fill:rgb(0, 0, 0);stroke:none;transform:none;opacity:1;;animation:none"></g></g><!-- [ldio] generated by https://loading.io --></svg>